<svg version="1.1" viewBox="0.0 0.0 960.0 720.0" fill="none" stroke="none" stroke-linecap="square" stroke-miterlimit="10" xmlns:xlink="http://www.w3.org/1999/xlink" xmlns="http://www.w3.org/2000/svg"><clipPath id="p.0"><path d="m0 0l960.0 0l0 720.0l-960.0 0l0 -720.0z" clip-rule="nonzero"/></clipPath><g clip-path="url(#p.0)"><path fill="#000000" fill-opacity="0.0" d="m0 0l960.0 0l0 720.0l-960.0 0z" fill-rule="evenodd"/><path fill="#000000" fill-opacity="0.0" d="m467.3176 652.37006l-21.795288 -0.4724121" fill-rule="evenodd"/><path stroke="#434343" stroke-width="1.0" stroke-linejoin="round" stroke-linecap="butt" d="m467.3176 652.37006l-21.795288 -0.4724121" fill-rule="evenodd"/><path fill="#72de1b" d="m438.6063 292.82153l-252.6929 -128.07295l252.6929 -136.14754z" fill-rule="evenodd"/><path fill="#72de1b" d="m438.6063 285.90552l265.38583 -128.07295l-265.38583 -136.14752z" fill-rule="evenodd"/><path fill="#72de1b" d="m463.53015 639.1226l-7.978363 -358.359l272.07285 -128.1292l7.9783325 358.359z" fill-rule="evenodd"/><path fill="#72de1b" d="m445.24673 633.8661l3.491272 -340.8432l-273.9795 -113.519l-3.491272 340.8432z" fill-rule="evenodd"/><path fill="#000000" fill-opacity="0.0" d="m725.86615 146.28609l10.299194 364.44092" fill-rule="evenodd"/><path stroke="#d4de1b" stroke-width="24.0" stroke-linejoin="round" stroke-linecap="butt" d="m725.86615 146.28609l10.299194 364.44092" fill-rule="evenodd"/><path fill="#000000" fill-opacity="0.0" d="m446.6608 292.35535l9.259827 359.352" fill-rule="evenodd"/><path stroke="#d4de1b" stroke-width="24.0" stroke-linejoin="round" stroke-linecap="butt" d="m446.6608 292.35535l9.259827 359.352" fill-rule="evenodd"/><path fill="#000000" fill-opacity="0.0" d="m167.79265 163.37534l5.7322845 352.624" fill-rule="evenodd"/><path stroke="#d4de1b" stroke-width="24.0" stroke-linejoin="round" stroke-linecap="butt" d="m167.79265 163.37534l5.7322845 352.624" fill-rule="evenodd"/><path fill="#000000" fill-opacity="0.0" d="m169.71391 166.79437l276.9449 125.56885" fill-rule="evenodd"/><path stroke="#d4de1b" stroke-width="24.0" stroke-linejoin="round" stroke-linecap="butt" d="m169.71391 166.79437l276.9449 125.56885" fill-rule="evenodd"/><path fill="#000000" fill-opacity="0.0" d="m446.6608 292.35535l279.21262 -144.24382" fill-rule="evenodd"/><path stroke="#d4de1b" stroke-width="24.0" stroke-linejoin="round" stroke-linecap="butt" d="m446.6608 292.35535l279.21262 -144.24382" fill-rule="evenodd"/><path fill="#000000" fill-opacity="0.0" d="m161.63518 174.85857l280.37793 -153.1726" fill-rule="evenodd"/><path stroke="#d4de1b" stroke-width="24.0" stroke-linejoin="round" stroke-linecap="butt" d="m161.63518 174.85857l280.37793 -153.1726" fill-rule="evenodd"/><path fill="#000000" fill-opacity="0.0" d="m432.79004 22.823011l297.70074 133.61732" fill-rule="evenodd"/><path stroke="#d4de1b" stroke-width="24.0" stroke-linejoin="round" stroke-linecap="butt" d="m432.79004 22.823011l297.70074 133.61732" fill-rule="evenodd"/><path fill="#000000" fill-opacity="0.0" d="m166.88977 506.054l287.30707 135.03207" fill-rule="evenodd"/><path stroke="#d4de1b" stroke-width="24.0" stroke-linejoin="round" stroke-linecap="butt" d="m166.88977 506.054l287.30707 135.03207" fill-rule="evenodd"/><path fill="#000000" fill-opacity="0.0" d="m460.48294 641.04156l281.38583 -141.5715" fill-rule="evenodd"/><path stroke="#d4de1b" stroke-width="24.0" stroke-linejoin="round" stroke-linecap="butt" d="m460.48294 641.04156l281.38583 -141.5715" fill-rule="evenodd"/><path fill="#d4de1b" d="m401.28 159.63405l0 0c0 -16.53003 21.490326 -29.930283 48.0 -29.930283l0 0c26.509674 0 48.0 13.400253 48.0 29.930283l0 0c0 16.530045 -21.490326 29.930283 -48.0 29.930283l0 0c-26.509674 0 -48.0 -13.400238 -48.0 -29.930283z" fill-rule="evenodd"/><path stroke="#434343" stroke-width="1.0" stroke-linejoin="round" stroke-linecap="butt" d="m401.28 159.63405l0 0c0 -16.53003 21.490326 -29.930283 48.0 -29.930283l0 0c26.509674 0 48.0 13.400253 48.0 29.930283l0 0c0 16.530045 -21.490326 29.930283 -48.0 29.930283l0 0c-26.509674 0 -48.0 -13.400238 -48.0 -29.930283z" fill-rule="evenodd"/><path fill="#d4de1b" d="m626.8216 268.57147l0 0c9.4105835 -22.16449 30.922058 -34.255676 48.04724 -27.006424l0 0c8.223816 3.4812164 14.315552 11.048065 16.93518 21.035934c2.619629 9.987854 1.5524902 21.578583 -2.9666748 32.22235l0 0c-9.4105835 22.16449 -30.922058 34.255676 -48.04724 27.00644l0 0c-17.125183 -7.2492676 -23.37909 -31.093811 -13.968506 -53.2583z" fill-rule="evenodd"/><path stroke="#434343" stroke-width="1.0" stroke-linejoin="round" stroke-linecap="butt" d="m626.8216 268.57147l0 0c9.4105835 -22.16449 30.922058 -34.255676 48.04724 -27.006424l0 0c8.223816 3.4812164 14.315552 11.048065 16.93518 21.035934c2.619629 9.987854 1.5524902 21.578583 -2.9666748 32.22235l0 0c-9.4105835 22.16449 -30.922058 34.255676 -48.04724 27.00644l0 0c-17.125183 -7.2492676 -23.37909 -31.093811 -13.968506 -53.2583z" fill-rule="evenodd"/><path fill="#d4de1b" d="m562.8216 388.35547l0 0c9.4105835 -22.16449 30.922058 -34.255676 48.04724 -27.006409l0 0c8.223816 3.4812012 14.315552 11.048065 16.93518 21.03592c2.619629 9.9878845 1.5524902 21.578613 -2.9666748 32.22235l0 0c-9.4105835 22.16449 -30.922058 34.255676 -48.04724 27.00644l0 0c-17.125183 -7.2492676 -23.37909 -31.093811 -13.968506 -53.2583z" fill-rule="evenodd"/><path stroke="#434343" stroke-width="1.0" stroke-linejoin="round" stroke-linecap="butt" d="m562.8216 388.35547l0 0c9.4105835 -22.16449 30.922058 -34.255676 48.04724 -27.006409l0 0c8.223816 3.4812012 14.315552 11.048065 16.93518 21.03592c2.619629 9.9878845 1.5524902 21.578613 -2.9666748 32.22235l0 0c-9.4105835 22.16449 -30.922058 34.255676 -48.04724 27.00644l0 0c-17.125183 -7.2492676 -23.37909 -31.093811 -13.968506 -53.2583z" fill-rule="evenodd"/><path fill="#d4de1b" d="m498.8216 500.15387l0 0c9.4105835 -22.16449 30.922058 -34.255676 48.04724 -27.006409l0 0c8.223816 3.4812012 14.315552 11.048065 16.93518 21.03592c2.619629 9.9878845 1.5524902 21.578583 -2.9666748 32.22238l0 0c-9.4105835 22.16449 -30.922058 34.255676 -48.04724 27.006409l0 0c-17.125153 -7.2492676 -23.37909 -31.093811 -13.968506 -53.2583z" fill-rule="evenodd"/><path stroke="#434343" stroke-width="1.0" stroke-linejoin="round" stroke-linecap="butt" d="m498.8216 500.15387l0 0c9.4105835 -22.16449 30.922058 -34.255676 48.04724 -27.006409l0 0c8.223816 3.4812012 14.315552 11.048065 16.93518 21.03592c2.619629 9.9878845 1.5524902 21.578583 -2.9666748 32.22238l0 0c-9.4105835 22.16449 -30.922058 34.255676 -48.04724 27.006409l0 0c-17.125153 -7.2492676 -23.37909 -31.093811 -13.968506 -53.2583z" fill-rule="evenodd"/><path fill="#d4de1b" d="m216.1241 470.4094l0 0c-11.732788 -21.027191 -8.066467 -45.392548 8.188965 -54.42154l0 0c7.806137 -4.335907 17.530777 -4.4829407 27.034576 -0.40878296c9.50383 4.0741577 18.008316 12.035767 23.642593 22.133392l0 0c11.732788 21.02716 8.066467 45.392517 -8.188965 54.42154l0 0c-16.255447 9.029022 -38.94438 -0.6974182 -50.67717 -21.72461z" fill-rule="evenodd"/><path stroke="#434343" stroke-width="1.0" stroke-linejoin="round" stroke-linecap="butt" d="m216.1241 470.4094l0 0c-11.732788 -21.027191 -8.066467 -45.392548 8.188965 -54.42154l0 0c7.806137 -4.335907 17.530777 -4.4829407 27.034576 -0.40878296c9.50383 4.0741577 18.008316 12.035767 23.642593 22.133392l0 0c11.732788 21.02716 8.066467 45.392517 -8.188965 54.42154l0 0c-16.255447 9.029022 -38.94438 -0.6974182 -50.67717 -21.72461z" fill-rule="evenodd"/><path fill="#d4de1b" d="m344.12408 374.58218l0 0c-11.732788 -21.02716 -8.066437 -45.392517 8.188995 -54.42154l0 0c7.806122 -4.3358765 17.530762 -4.48291 27.034576 -0.40878296c9.503815 4.0741577 18.0083 12.035767 23.642578 22.133392l0 0c11.732788 21.02716 8.066467 45.392548 -8.188965 54.42154l0 0c-16.255432 9.029022 -38.944397 -0.6974182 -50.677185 -21.72461z" fill-rule="evenodd"/><path stroke="#434343" stroke-width="1.0" stroke-linejoin="round" stroke-linecap="butt" d="m344.12408 374.58218l0 0c-11.732788 -21.02716 -8.066437 -45.392517 8.188995 -54.42154l0 0c7.806122 -4.3358765 17.530762 -4.48291 27.034576 -0.40878296c9.503815 4.0741577 18.0083 12.035767 23.642578 22.133392l0 0c11.732788 21.02716 8.066467 45.392548 -8.188965 54.42154l0 0c-16.255432 9.029022 -38.944397 -0.6974182 -50.677185 -21.72461z" fill-rule="evenodd"/><path fill="#000000" fill-opacity="0.0" d="m455.85565 150.48781l115.40155 -67.68896" fill-rule="evenodd"/><path stroke="#d4de1b" stroke-width="24.0" stroke-linejoin="round" stroke-linecap="butt" d="m455.85565 150.48781l115.40155 -67.68896" fill-rule="evenodd"/><path fill="#000000" fill-opacity="0.0" d="m655.4829 286.24564l77.95276 -38.984818" fill-rule="evenodd"/><path stroke="#d4de1b" stroke-width="24.0" stroke-linejoin="round" stroke-linecap="butt" d="m655.4829 286.24564l77.95276 -38.984818" fill-rule="evenodd"/><path fill="#000000" fill-opacity="0.0" d="m455.85495 561.3948l79.62204 -40.11664" fill-rule="evenodd"/><path stroke="#d4de1b" stroke-width="24.0" stroke-linejoin="round" stroke-linecap="butt" d="m455.85495 561.3948l79.62204 -40.11664" fill-rule="evenodd"/><path fill="#000000" fill-opacity="0.0" d="m589.7139 404.95544l143.71649 -69.85828" fill-rule="evenodd"/><path stroke="#d4de1b" stroke-width="24.0" stroke-linejoin="round" stroke-linecap="butt" d="m589.7139 404.95544l143.71649 -69.85828" fill-rule="evenodd"/><path fill="#000000" fill-opacity="0.0" d="m371.63516 360.03647l75.02362 33.451477" fill-rule="evenodd"/><path stroke="#d4de1b" stroke-width="24.0" stroke-linejoin="round" stroke-linecap="butt" d="m371.63516 360.03647l75.02362 33.451477" fill-rule="evenodd"/><path fill="#000000" fill-opacity="0.0" d="m171.63518 415.93567l75.02362 33.451477" fill-rule="evenodd"/><path stroke="#d4de1b" stroke-width="24.0" stroke-linejoin="round" stroke-linecap="butt" d="m171.63518 415.93567l75.02362 33.451477" fill-rule="evenodd"/><path fill="#000000" fill-opacity="0.0" d="m404.021 387.8504l33.95276 16.850372" fill-rule="evenodd"/><path stroke="#434343" stroke-width="1.0" stroke-linejoin="round" stroke-linecap="butt" d="m404.021 387.8504l33.95276 16.850372" fill-rule="evenodd"/><path fill="#000000" fill-opacity="0.0" d="m409.76117 364.20996l27.716522 13.480316" fill-rule="evenodd"/><path stroke="#434343" stroke-width="1.0" stroke-linejoin="round" stroke-linecap="butt" d="m409.76117 364.20996l27.716522 13.480316" fill-rule="evenodd"/><path fill="#000000" fill-opacity="0.0" d="m438.4357 404.6929l4.881897 220.00003" fill-rule="evenodd"/><path stroke="#434343" stroke-width="1.0" stroke-linejoin="round" stroke-linecap="butt" d="m438.4357 404.6929l4.881897 220.00003" fill-rule="evenodd"/><path fill="#000000" fill-opacity="0.0" d="m435.59317 301.8504l0.94488525 75.8425" fill-rule="evenodd"/><path stroke="#434343" stroke-width="1.0" stroke-linejoin="round" stroke-linecap="butt" d="m435.59317 301.8504l0.94488525 75.8425" fill-rule="evenodd"/><path fill="#000000" fill-opacity="0.0" d="m184.43307 408.9449l32.661407 14.141724" fill-rule="evenodd"/><path stroke="#434343" stroke-width="1.0" stroke-linejoin="round" stroke-linecap="butt" d="m184.43307 408.9449l32.661407 14.141724" fill-rule="evenodd"/><path fill="#000000" fill-opacity="0.0" d="m185.1181 434.4908l23.968506 12.566925" fill-rule="evenodd"/><path stroke="#434343" stroke-width="1.0" stroke-linejoin="round" stroke-linecap="butt" d="m185.1181 434.4908l23.968506 12.566925" fill-rule="evenodd"/><path fill="#000000" fill-opacity="0.0" d="m180.06299 184.65355l4.850403 225.70079" fill-rule="evenodd"/><path stroke="#434343" stroke-width="1.0" stroke-linejoin="round" stroke-linecap="butt" d="m180.06299 184.65355l4.850403 225.70079" fill-rule="evenodd"/><path fill="#000000" fill-opacity="0.0" d="m180.53543 185.60104l254.61417 116.31497" fill-rule="evenodd"/><path stroke="#434343" stroke-width="1.0" stroke-linejoin="round" stroke-linecap="butt" d="m180.53543 185.60104l254.61417 116.31497" fill-rule="evenodd"/><path fill="#000000" fill-opacity="0.0" d="m186.54068 502.26248l256.75592 122.4252" fill-rule="evenodd"/><path stroke="#434343" stroke-width="1.0" stroke-linejoin="round" stroke-linecap="butt" d="m186.54068 502.26248l256.75592 122.4252" fill-rule="evenodd"/><path fill="#000000" fill-opacity="0.0" d="m185.1181 434.01575l0.94488525 68.724396" fill-rule="evenodd"/><path stroke="#434343" stroke-width="1.0" stroke-linejoin="round" stroke-linecap="butt" d="m185.1181 434.01575l0.94488525 68.724396" fill-rule="evenodd"/><path fill="#000000" fill-opacity="0.0" d="m459.64566 300.8714l5.480316 242.48816" fill-rule="evenodd"/><path stroke="#434343" stroke-width="1.0" stroke-linejoin="round" stroke-linecap="butt" d="m459.64566 300.8714l5.480316 242.48816" fill-rule="evenodd"/><path fill="#000000" fill-opacity="0.0" d="m459.17322 300.8714l255.4331 -133.60631" fill-rule="evenodd"/><path stroke="#434343" stroke-width="1.0" stroke-linejoin="round" stroke-linecap="butt" d="m459.17322 300.8714l255.4331 -133.60631" fill-rule="evenodd"/><path fill="#000000" fill-opacity="0.0" d="m466.75592 625.78217l256.8819 -129.85828" fill-rule="evenodd"/><path stroke="#434343" stroke-width="1.0" stroke-linejoin="round" stroke-linecap="butt" d="m466.75592 625.78217l256.8819 -129.85828" fill-rule="evenodd"/><path fill="#000000" fill-opacity="0.0" d="m465.8084 625.78217l-0.6929321 -55.905518" fill-rule="evenodd"/><path stroke="#434343" stroke-width="1.0" stroke-linejoin="round" stroke-linecap="butt" d="m465.8084 625.78217l-0.6929321 -55.905518" fill-rule="evenodd"/><path fill="#000000" fill-opacity="0.0" d="m506.68503 550.2677l-41.543304 20.75592" fill-rule="evenodd"/><path stroke="#434343" stroke-width="1.0" stroke-linejoin="round" stroke-linecap="butt" d="m506.68503 550.2677l-41.543304 20.75592" fill-rule="evenodd"/><path fill="#000000" fill-opacity="0.0" d="m495.14435 528.34644l-29.73227 14.078735" fill-rule="evenodd"/><path stroke="#434343" stroke-width="1.0" stroke-linejoin="round" stroke-linecap="butt" d="m495.14435 528.34644l-29.73227 14.078735" fill-rule="evenodd"/><path fill="#000000" fill-opacity="0.0" d="m718.9921 357.57742l4.1574707 138.36221" fill-rule="evenodd"/><path stroke="#434343" stroke-width="1.0" stroke-linejoin="round" stroke-linecap="butt" d="m718.9921 357.57742l4.1574707 138.36221" fill-rule="evenodd"/><path fill="#000000" fill-opacity="0.0" d="m718.9921 356.42258l-89.921265 44.06299" fill-rule="evenodd"/><path stroke="#434343" stroke-width="1.0" stroke-linejoin="round" stroke-linecap="butt" d="m718.9921 356.42258l-89.921265 44.06299" fill-rule="evenodd"/><path fill="#000000" fill-opacity="0.0" d="m718.66144 329.85303l-94.77167 45.039368" fill-rule="evenodd"/><path stroke="#434343" stroke-width="1.0" stroke-linejoin="round" stroke-linecap="butt" d="m718.66144 329.85303l-94.77167 45.039368" fill-rule="evenodd"/><path fill="#000000" fill-opacity="0.0" d="m717.4514 268.69028l0.37799072 62.33072" fill-rule="evenodd"/><path stroke="#434343" stroke-width="1.0" stroke-linejoin="round" stroke-linecap="butt" d="m717.4514 268.69028l0.37799072 62.33072" fill-rule="evenodd"/><path fill="#000000" fill-opacity="0.0" d="m717.9239 269.16534l-25.57483 11.842529" fill-rule="evenodd"/><path stroke="#434343" stroke-width="1.0" stroke-linejoin="round" stroke-linecap="butt" d="m717.9239 269.16534l-25.57483 11.842529" fill-rule="evenodd"/><path fill="#000000" fill-opacity="0.0" d="m716.50397 242.14961l-26.551208 13.291336" fill-rule="evenodd"/><path stroke="#434343" stroke-width="1.0" stroke-linejoin="round" stroke-linecap="butt" d="m716.50397 242.14961l-26.551208 13.291336" fill-rule="evenodd"/><path fill="#000000" fill-opacity="0.0" d="m714.6063 167.26772l1.8897095 74.86615" fill-rule="evenodd"/><path stroke="#434343" stroke-width="1.0" stroke-linejoin="round" stroke-linecap="butt" d="m714.6063 167.26772l1.8897095 74.86615" fill-rule="evenodd"/><path fill="#000000" fill-opacity="0.0" d="m570.05774 97.22572l-79.62204 46.89763" fill-rule="evenodd"/><path stroke="#434343" stroke-width="1.0" stroke-linejoin="round" stroke-linecap="butt" d="m570.05774 97.22572l-79.62204 46.89763" fill-rule="evenodd"/><path fill="#000000" fill-opacity="0.0" d="m541.147 85.850395l-75.811005 45.48031" fill-rule="evenodd"/><path stroke="#434343" stroke-width="1.0" stroke-linejoin="round" stroke-linecap="butt" d="m541.147 85.850395l-75.811005 45.48031" fill-rule="evenodd"/><path fill="#000000" fill-opacity="0.0" d="m569.1102 97.698166l121.79529 54.015747" fill-rule="evenodd"/><path stroke="#434343" stroke-width="1.0" stroke-linejoin="round" stroke-linecap="butt" d="m569.1102 97.698166l121.79529 54.015747" fill-rule="evenodd"/><path fill="#000000" fill-opacity="0.0" d="m445.41208 279.69028l245.51181 -127.023605" fill-rule="evenodd"/><path stroke="#434343" stroke-width="1.0" stroke-linejoin="round" stroke-linecap="butt" d="m445.41208 279.69028l245.51181 -127.023605" fill-rule="evenodd"/><path fill="#000000" fill-opacity="0.0" d="m200.90814 166.91864l244.56693 112.31494" fill-rule="evenodd"/><path stroke="#434343" stroke-width="1.0" stroke-linejoin="round" stroke-linecap="butt" d="m200.90814 166.91864l244.56693 112.31494" fill-rule="evenodd"/><path fill="#000000" fill-opacity="0.0" d="m201.4357 167.05774l237.82678 -129.32283" fill-rule="evenodd"/><path stroke="#434343" stroke-width="1.0" stroke-linejoin="round" stroke-linecap="butt" d="m201.4357 167.05774l237.82678 -129.32283" fill-rule="evenodd"/><path fill="#000000" fill-opacity="0.0" d="m540.67456 85.12861l-101.88977 -47.401573" fill-rule="evenodd"/><path stroke="#434343" stroke-width="1.0" stroke-linejoin="round" stroke-linecap="butt" d="m540.67456 85.12861l-101.88977 -47.401573" fill-rule="evenodd"/><path fill="#000000" fill-opacity="0.0" d="m161.63518 517.79004l284.5039 133.88977" fill-rule="evenodd"/><path stroke="#434343" stroke-width="1.0" stroke-linejoin="round" stroke-linecap="butt" d="m161.63518 517.79004l284.5039 133.88977" fill-rule="evenodd"/><path fill="#000000" fill-opacity="0.0" d="m466.84515 652.37006l282.2677 -142.17322" fill-rule="evenodd"/><path stroke="#434343" stroke-width="1.0" stroke-linejoin="round" stroke-linecap="butt" d="m466.84515 652.37006l282.2677 -142.17322" fill-rule="evenodd"/><path fill="#000000" fill-opacity="0.0" d="m155.50919 163.91864l5.7007904 353.7323" fill-rule="evenodd"/><path stroke="#434343" stroke-width="1.0" stroke-linejoin="round" stroke-linecap="butt" d="m155.50919 163.91864l5.7007904 353.7323" fill-rule="evenodd"/><path fill="#000000" fill-opacity="0.0" d="m155.98163 164.27034l279.62204 -153.07086" fill-rule="evenodd"/><path stroke="#434343" stroke-width="1.0" stroke-linejoin="round" stroke-linecap="butt" d="m155.98163 164.27034l279.62204 -153.07086" fill-rule="evenodd"/><path fill="#000000" fill-opacity="0.0" d="m738.2677 147.68242l-302.39368 -136.97638" fill-rule="evenodd"/><path stroke="#434343" stroke-width="1.0" stroke-linejoin="round" stroke-linecap="butt" d="m738.2677 147.68242l-302.39368 -136.97638" fill-rule="evenodd"/><path fill="#000000" fill-opacity="0.0" d="m738.58795 148.54593l10.236206 362.11023" fill-rule="evenodd"/><path stroke="#434343" stroke-width="1.0" stroke-linejoin="round" stroke-linecap="butt" d="m738.58795 148.54593l10.236206 362.11023" fill-rule="evenodd"/></g></svg>